<svg t="1755619318680" class="icon" viewBox="0 0 1024 1024" version="1.1" xmlns="http://www.w3.org/2000/svg" p-id="40917" width="24" height="24"><path d="M256 640c-52.934 0-96 43.066-96 96s43.066 96 96 96 96-43.066 96-96S308.934 640 256 640z" p-id="40918" fill="#ffffff"></path><path d="M767 544l-510 0C150.41 544 64 630.41 64 737S150.41 928 257 928l510 0c106.59 0 193-84.41 193-191S873.59 544 767 544zM256 864c-70.692 0-128-57.306-128-128 0-70.692 57.308-128 128-128s128 57.308 128 128C384 806.694 326.692 864 256 864z" p-id="40919" fill="#ffffff"></path><path d="M768 384c52.934 0 96-43.066 96-96s-43.066-96-96-96-96 43.066-96 96S715.066 384 768 384z" p-id="40920" fill="#ffffff"></path><path d="M257 480l510 0c106.59 0 193-84.41 193-191S873.59 96 767 96l-510 0C150.41 96 64 182.41 64 289S150.41 480 257 480zM768 160c70.692 0 128 57.308 128 128 0 70.694-57.308 128-128 128s-128-57.306-128-128C640 217.308 697.308 160 768 160z" p-id="40921" fill="#ffffff"></path></svg>